<?xml version="1.0" standalone="no"?><!DOCTYPE svg PUBLIC "-//W3C//DTD SVG 1.1//EN" "http://www.w3.org/Graphics/SVG/1.1/DTD/svg11.dtd"><svg t="1713193273905" class="icon" viewBox="0 0 1024 1024" version="1.1" xmlns="http://www.w3.org/2000/svg" p-id="4273" width="200" height="200" xmlns:xlink="http://www.w3.org/1999/xlink"><path d="M483.555556 156.444444v480.711112c0 2.844444 0 2.844444 2.844444 2.844444h51.2c2.844444 0 2.844444 0 2.844444-2.844444v-483.555556l167.822223 142.222222c11.377778 5.688889 31.288889 8.533333 45.511111-8.533333 11.377778-14.222222 0-34.133333-11.377778-45.511111l-227.555556-196.266667c-2.844444-2.844444-5.688889-2.844444-5.688888 0l-219.022223 219.022222c-19.911111 19.911111 17.066667 62.577778 48.355556 34.133334l2.844444-2.844445 142.222223-139.377778z" fill="#adadad" p-id="4274"></path><path d="M839.111111 355.555556v56.888888h113.777778v540.444445h-881.777778v-540.444445h113.777778v-56.888888h-113.777778c-36.977778 0-56.888889 31.288889-56.888889 56.888888v540.444445c2.844444 31.288889 14.222222 56.888889 56.888889 56.888889h881.777778c39.822222 0 56.888889-19.911111 56.888889-56.888889v-540.444445c-2.844444-51.2-56.888889-56.888889-56.888889-56.888888h-113.777778z" fill="#adadad" p-id="4275"></path></svg>